<svg fill="#000000" xmlns="http://www.w3.org/2000/svg"  viewBox="0 0 100 100" width="512px" height="512px"><path d="M 25.261719 16.996094 A 1.0001 1.0001 0 0 0 24.568359 17.289062 L 17.296875 24.560547 A 1.0001 1.0001 0 0 0 17.294922 25.974609 L 41.3125 50 L 17.292969 74.019531 A 1.0001 1.0001 0 0 0 17.292969 75.433594 L 24.566406 82.708984 A 1.0001 1.0001 0 0 0 25.980469 82.708984 L 50 58.689453 L 74.015625 82.710938 A 1.0001 1.0001 0 0 0 75.429688 82.710938 L 82.703125 75.439453 A 1.0001 1.0001 0 0 0 82.703125 74.025391 L 58.6875 50.001953 L 82.707031 25.982422 A 1.0001 1.0001 0 0 0 82.707031 24.568359 L 75.433594 17.292969 A 1.0001 1.0001 0 0 0 74.019531 17.292969 L 50 41.3125 L 25.982422 17.289062 A 1.0001 1.0001 0 0 0 25.261719 16.996094 z M 25.275391 19.410156 L 49.292969 43.433594 A 1.0001 1.0001 0 0 0 50.707031 43.433594 L 74.726562 19.416016 L 80.585938 25.275391 L 56.566406 49.294922 A 1.0001 1.0001 0 0 0 56.566406 50.708984 L 80.582031 74.732422 L 74.722656 80.587891 L 50.707031 56.568359 A 1.0001 1.0001 0 0 0 49.292969 56.568359 L 25.273438 80.585938 L 19.414062 74.726562 L 43.433594 50.707031 A 1.0001 1.0001 0 0 0 43.433594 49.292969 L 19.417969 25.267578 L 25.275391 19.410156 z M 25.494141 24.994141 A 0.50005 0.50005 0 0 0 25.146484 25.853516 L 26.146484 26.853516 A 0.50005 0.50005 0 1 0 26.853516 26.146484 L 25.853516 25.146484 A 0.50005 0.50005 0 0 0 25.494141 24.994141 z M 74.490234 24.996094 A 0.50005 0.50005 0 0 0 74.146484 25.146484 L 73.146484 26.146484 A 0.50005 0.50005 0 1 0 73.853516 26.853516 L 74.853516 25.853516 A 0.50005 0.50005 0 0 0 74.490234 24.996094 z M 28.494141 27.994141 A 0.50005 0.50005 0 0 0 28.146484 28.853516 L 30.146484 30.853516 A 0.50005 0.50005 0 1 0 30.853516 30.146484 L 28.853516 28.146484 A 0.50005 0.50005 0 0 0 28.494141 27.994141 z M 71.490234 27.996094 A 0.50005 0.50005 0 0 0 71.146484 28.146484 L 50 49.292969 L 32.853516 32.146484 A 0.50005 0.50005 0 0 0 32.494141 31.994141 A 0.50005 0.50005 0 0 0 32.146484 32.853516 L 49.292969 50 L 28.146484 71.146484 A 0.50005 0.50005 0 1 0 28.853516 71.853516 L 50 50.707031 L 67.146484 67.853516 A 0.50005 0.50005 0 1 0 67.853516 67.146484 L 50.707031 50 L 71.853516 28.853516 A 0.50005 0.50005 0 0 0 71.490234 27.996094 z M 69.494141 68.994141 A 0.50005 0.50005 0 0 0 69.146484 69.853516 L 71.146484 71.853516 A 0.50005 0.50005 0 1 0 71.853516 71.146484 L 69.853516 69.146484 A 0.50005 0.50005 0 0 0 69.494141 68.994141 z M 73.494141 72.994141 A 0.50005 0.50005 0 0 0 73.146484 73.853516 L 74.146484 74.853516 A 0.50005 0.50005 0 1 0 74.853516 74.146484 L 73.853516 73.146484 A 0.50005 0.50005 0 0 0 73.494141 72.994141 z M 26.490234 72.996094 A 0.50005 0.50005 0 0 0 26.146484 73.146484 L 25.146484 74.146484 A 0.50005 0.50005 0 1 0 25.853516 74.853516 L 26.853516 73.853516 A 0.50005 0.50005 0 0 0 26.490234 72.996094 z"/></svg>